<svg width="512" height="512" viewBox="0 0 512 512" fill="none" xmlns="http://www.w3.org/2000/svg">
<g clip-path="url(#clip0_245_3272)">
<rect width="512" height="512" fill="#FF541E"/>
<g clip-path="url(#clip1_245_3272)">
<path d="M151.419 193.093C151.418 193.048 151.417 193.003 151.417 192.958V157.934C151.417 154.066 154.553 150.93 158.422 150.93H172.431L172.479 150.93L1943.58 150.93C1949.38 150.93 1954.08 146.226 1954.08 140.423V119.409C1954.08 113.606 1949.38 108.902 1943.58 108.902H172.432C137.615 108.902 109.391 137.127 109.391 171.944V224.479C109.391 230.281 114.095 234.986 119.898 234.986H140.912C146.714 234.986 151.419 230.281 151.419 224.479V193.093Z" fill="#121212"/>
<path d="M-1275.05 371.576C-1275.05 365.773 -1270.35 361.069 -1264.55 361.069H-1254.15L-1254.04 361.069H340.49L340.543 361.069H354.552C358.421 361.069 361.557 357.933 361.557 354.064V340.247L361.558 340.055V298.027L361.557 297.835V284.018C361.557 280.15 358.421 277.013 354.552 277.013H340.64L340.544 277.013H231.972C226.169 277.013 221.465 272.309 221.465 266.506V245.492C221.465 239.69 226.169 234.985 231.972 234.985H340.544C375.361 234.985 403.585 263.21 403.585 298.027V340.055C403.585 374.872 375.361 403.097 340.544 403.097H-1243.46L-1243.53 403.097H-1264.55C-1270.35 403.097 -1275.05 398.393 -1275.05 392.59V371.576Z" fill="#121212"/>
</g>
</g>
<defs>
<clipPath id="clip0_245_3272">
<rect width="512" height="512" fill="white"/>
</clipPath>
<clipPath id="clip1_245_3272">
<rect width="512" height="512" fill="white"/>
</clipPath>
</defs>
</svg>
